<?xml version="1.0" encoding="UTF-8"?><svg id="Ebene_2" xmlns="http://www.w3.org/2000/svg" viewBox="0 0 266.63 267.4"><defs><style>.cls-1{fill:#f4e5ef;}</style></defs><g id="Ebene_1-2"><path class="cls-1" d="M123.41,116.86c.46.45,1.24.29,1.59-.25,6.16-9.57,12.1-19.29,18.56-28.66,19.47-28.18,42.36-53.1,70.91-72.39,9.23-6.24,18.91-11.76,29.82-14.54,15.66-3.98,24.36,3.92,21.94,19.77-2.73,17.88-11.59,33.22-20.76,48.27-29.62,48.62-64.72,93.39-98.32,139.21-15.76,21.49-18.19,16.21-4.78,38.56,4.63,7.72,10.2,15.29,4.83,19.18-4.49,3.26-7.66.14-10.1-3.21-3.43-4.71-6.69-9.55-9.66-14.56-3.45-5.81-5.45-5.99-9.82-1.25-2.47,2.68-4.6,5.47-6.99,8.19-2.96,3.37-6.35,8.15-11.36,4.31-5.91-4.53-.79-8.96,1.96-12.55s5.02-6.06,7.67-9.01c5.02-5.59,4.75-10.32.16-16.42-22.23-29.48-44.1-59.23-66.06-88.91-13.41-18.13-27.1-36.07-36.91-56.55-2.56-5.33-4.62-10.83-5.59-16.67-2.98-17.97,7.55-29.34,25.74-27.68,9.61.87,18.51,4.22,26.66,9.18,28.22,17.17,50.65,39.95,66.36,69.18.99,1.84,2.79,5.44,4.15,6.77ZM32.17,45.91c-16.55-3.16-21.48,1.97-17.69,15.47,3.31,11.78,9.57,22.2,16.7,31.98,29.05,39.83,58.41,79.44,87.38,119.33,4.66,6.41,6.83,3.11,9.83-.98,22.19-30.28,44.72-60.32,66.56-90.85,20.31-28.38,41.34-56.39,54.76-89.02,2.2-5.35,6.47-12.23,2.27-16.44-5.07-5.08-11.57.55-16.83,3.27-26,13.42-46.84,33.17-65.3,55.4-14.59,17.56-28.36,35.85-37.42,57.08-1.65,3.86-1.69,8.85-7.06,9.39-5.9.6-7.53-4.34-9.25-8.52-7.31-17.67-17.02-33.86-30.15-47.8-16.03-17.01-33.64-31.85-53.8-38.3Z"/></g></svg>