<?xml version="1.0" encoding="UTF-8"?><svg id="Ebene_2" xmlns="http://www.w3.org/2000/svg" viewBox="0 0 511.11 511.82"><defs><style>.cls-1{fill:#fff;stroke-width:0px;}</style></defs><g id="Ebene_1-2"><path class="cls-1" d="M344.17,511.82h-178.94c-1.3-2.01-3.33-.93-4.97-1-17.14-.78-34.21-1.89-50.98-5.95-42.3-10.25-73.71-34.21-92.48-73.79-10.65-22.47-14.44-46.62-15.21-71.22-2.13-68.6-2.15-137.22,0-205.82.52-16.65,2.27-33.19,6.72-49.34C20.27,61.36,46.46,30.47,88.4,13.51,111.75,4.06,136.39,1.8,161.26.98c1.64-.05,3.66,1.02,4.97-.98h176.94c1.16,1.86,3.01.88,4.5.94,15.12.68,30.2,1.49,45.18,3.95,62.95,10.35,107.55,56.83,115.44,120.23.82,6.61.53,13.41,2.82,19.82v218.92c-1.55.58-.92,1.96-.99,2.99-.69,10.29-1.8,20.52-3.99,30.6-11.52,52.95-42.4,88.6-94.45,105.05-20.31,6.42-41.4,7.67-62.53,8.37-1.64.05-3.65-1.01-4.99.94ZM256.11,465.8c13.49,0,26.99.14,40.48-.03,29.13-.37,58.39.62,87.26-4.04,39.16-6.31,65.24-28.13,75.82-67.01,4.36-16.03,4.9-32.55,5.41-49.03,1.58-51.47,1.18-102.95.61-154.43-.23-20.63-.49-41.29-3.48-61.81-5.83-40.11-30.45-67.75-69.23-77.19-18.43-4.48-37.31-4.75-56.1-5.13-44.81-.91-89.62-.84-134.43-.37-25.63.27-51.38-.46-76.71,4.32-38.25,7.22-63.27,29.23-73.11,67.41-4.53,17.56-4.81,35.59-5.3,53.56-1.13,41.14-1.07,82.3-.68,123.45.27,28.8-.4,57.67,3.65,86.3,3.85,27.24,15.52,50.12,39.06,65.6,17.01,11.19,36.37,15.12,56.33,16.43,36.77,2.42,73.59,1.94,110.41,1.97Z"/><path class="cls-1" d="M124.63,256.1c-.26-72.31,58.71-131.38,131.36-131.57,72.52-.19,131.37,58.53,131.59,131.28.21,72.44-58.74,131.54-131.3,131.64-72.44.1-131.39-58.71-131.65-131.35ZM170.96,255.8c-.11,47.09,37.7,85.14,84.79,85.33,47.36.2,85.48-37.67,85.59-85.02.11-47.1-37.65-85.11-84.79-85.34-47.3-.23-85.48,37.7-85.59,85.04Z"/><path class="cls-1" d="M393.42,88.71c17.12.31,30.34,14.11,29.98,31.3-.36,17.04-14.24,30.26-31.43,29.93-16.82-.33-30.18-14.5-29.8-31.64.36-16.66,14.34-29.9,31.25-29.59Z"/></g></svg>